<svg xmlns="http://www.w3.org/2000/svg" viewBox="-50 -50 270 100">
  <rect x="-50" y="-50" width="270" height="100" fill="#f5e7e0" />

  <circle cx="0" cy="0" r="34" fill="#dba194" opacity="0.5" />

  <path
    fill="none"
    stroke="#a97ea3"
    stroke-width="8"
    stroke-linecap="round"
    stroke-linejoin="round"
    stroke-dasharray="0 0.9999"
    pathLength="9"
    d="M -35 -36 C -35 -10 35 10 35 36"
  />

  <path
    fill="none"
    stroke="#dba194"
    stroke-width="8"
    d="M 35 -40 C 35 -10 -35 10 -35 40"
  />

  <path
    fill="none"
    stroke="#434970"
    stroke-width="8"
    d="M 0 -30 A 30 30 0 1 0 30 0 L 0 0"
  />

  <!-- <text x="50" y="20" fill="#434970" style="font-size: 60px">wasR</text> -->

  <g fill="#434970" transform="translate(-50, -50)">
    <path
      d="M112.1,70l-10.7-31.5h6.2c0,0,7.7,23.5,7.7,23.5h-1.4c0-.1,8.3-18.5,8.3-18.5h3.7l8.4,18.5h-1.6c0,.1,7.7-23.5,7.7-23.5h6.2l-10.6,31.5h-4.3l-8.8-20,1.4.2-8.2,19.9h-4.2Z"
    />
    <path
      d="M163.5,70.6c-2.6,0-5-.7-7.1-2.2-2.1-1.4-3.9-3.4-5.1-5.9-1.3-2.5-1.9-5.3-1.9-8.4s.7-6,2-8.4c1.3-2.5,3.1-4.4,5.3-5.8,2.2-1.4,4.7-2.1,7.5-2.1s3.1.2,4.5.7c1.4.5,2.5,1.2,3.6,2,1,.9,1.9,1.9,2.5,3,.7,1.1,1.1,2.3,1.2,3.6l-1.4-.5v-8.2h6.2v31.5h-6.2v-7.5l1.4-.4c-.2,1.1-.7,2.1-1.5,3.2-.7,1-1.7,1.9-2.8,2.7-1.1.8-2.4,1.4-3.8,1.9-1.4.5-2.8.7-4.3.7ZM165.2,64.9c1.9,0,3.5-.5,5-1.4,1.4-.9,2.6-2.2,3.4-3.8.8-1.6,1.2-3.5,1.2-5.5s-.4-3.9-1.2-5.5c-.8-1.6-2-2.9-3.4-3.8-1.4-.9-3.1-1.4-5-1.4s-3.5.5-4.9,1.4c-1.4.9-2.5,2.2-3.4,3.8-.8,1.6-1.2,3.4-1.2,5.5s.4,3.9,1.2,5.5c.8,1.6,1.9,2.9,3.4,3.8,1.4.9,3,1.4,4.9,1.4Z"
    />
    <path
      d="M199.9,70.6c-2.6,0-5-.5-7.1-1.4-2.1-.9-3.9-2.3-5.3-4.1l4.2-3.6c1.2,1.4,2.5,2.4,3.9,3,1.4.6,3,.9,4.8.9s1.4,0,2-.3c.6-.2,1.2-.5,1.6-.8.5-.4.8-.8,1-1.3.2-.5.4-1,.4-1.6,0-1-.4-1.9-1.1-2.5-.4-.3-1-.6-1.9-.9-.9-.3-2-.7-3.3-1-2.3-.6-4.2-1.3-5.7-2s-2.6-1.6-3.4-2.6c-.6-.8-1-1.6-1.3-2.5-.3-.9-.4-1.9-.4-3s.3-2.5.9-3.6c.6-1.1,1.4-2.1,2.4-2.9,1-.8,2.2-1.4,3.6-1.9,1.4-.4,2.8-.7,4.4-.7s2.9.2,4.4.6c1.5.4,2.8,1,4,1.7,1.2.8,2.3,1.7,3.1,2.7l-3.5,3.9c-.8-.8-1.6-1.4-2.5-2-.9-.6-1.8-1-2.7-1.3-.9-.3-1.8-.5-2.5-.5s-1.6,0-2.3.2c-.7.2-1.2.4-1.7.7-.5.3-.8.7-1.1,1.2-.2.5-.4,1-.4,1.6,0,.5.2,1,.4,1.5s.5.8.9,1.2c.4.3,1.1.7,2,1s2,.7,3.4,1c2,.5,3.6,1.1,4.9,1.7s2.3,1.3,3.1,2.1c.8.8,1.4,1.6,1.7,2.6.3,1,.5,2.1.5,3.4,0,1.8-.5,3.4-1.5,4.8-1,1.4-2.4,2.5-4.1,3.3-1.7.8-3.6,1.2-5.8,1.2Z"
    />
    <path
      d="M219.7,70V28h17.9c2.4,0,4.6.6,6.6,1.8,2,1.2,3.6,2.8,4.8,4.8,1.2,2,1.8,4.3,1.8,6.8s-.6,4.4-1.8,6.4c-1.2,2-2.8,3.5-4.8,4.7s-4.2,1.8-6.7,1.8h-11.4v15.8h-6.5ZM226.2,48h12c1.2,0,2.2-.3,3.1-.9.9-.6,1.6-1.4,2.2-2.4.5-1,.8-2.1.8-3.4s-.3-2.6-1-3.7c-.7-1.1-1.6-1.9-2.8-2.5-1.2-.6-2.5-.9-4-.9h-10.3v13.7ZM244.7,70l-10.7-19,6.7-1.5,11.9,20.5h-7.9Z"
    />
  </g>
</svg>
